<?xml version="1.0" encoding="UTF-8"?>
<svg id="Layer_1" data-name="Layer 1" xmlns="http://www.w3.org/2000/svg" viewBox="0 0 45.81 43.66">
  <defs>
    <style>
      .cls-1 {
        fill: #78c710;
      }
    </style>
  </defs>
  <g id="VcXDeC">
    <path class="cls-1" d="M22.83,0c.82,0,1.31,.37,1.64,1.04,1.95,3.97,3.92,7.94,5.87,11.91,.16,.32,.34,.46,.7,.51,4.33,.62,8.67,1.25,13,1.88,1.25,.18,1.92,.85,1.73,1.87-.07,.39-.33,.81-.62,1.1-3.17,3.12-6.36,6.23-9.55,9.33-.23,.22-.29,.42-.24,.74,.77,4.43,1.52,8.86,2.28,13.29,.12,.7-.07,1.27-.65,1.68-.58,.41-1.18,.38-1.8,.05-3.95-2.08-7.9-4.15-11.84-6.23-.32-.17-.55-.18-.88,0-3.9,2.06-7.8,4.12-11.71,6.15-.37,.19-.83,.33-1.24,.3-.91-.05-1.52-.93-1.36-1.88,.69-4.09,1.35-8.18,2.12-12.25,.21-1.11,.03-1.84-.83-2.64-3.02-2.82-5.94-5.74-8.9-8.62-.49-.48-.68-1.05-.49-1.69,.2-.68,.69-1.04,1.39-1.14,.6-.09,1.2-.17,1.79-.26,3.85-.56,7.7-1.13,11.55-1.67,.35-.05,.51-.2,.66-.5,1.96-3.99,3.93-7.97,5.89-11.96C21.69,.35,22.17,0,22.83,0Z"/>
  </g>
</svg>