<?xml version="1.0" encoding="UTF-8"?>
<svg id="Layer_1" data-name="Layer 1" xmlns="http://www.w3.org/2000/svg" xmlns:xlink="http://www.w3.org/1999/xlink" viewBox="0 0 428 428">
  <defs>
    <style>
      .cls-1 {
        fill: none;
      }

      .cls-2 {
        filter: url(#drop-shadow-1);
      }

      .cls-3 {
        fill: #ebebeb;
      }

      .cls-4 {
        fill: #fdbb84;
      }

      .cls-5 {
        fill: #fcd1a2;
      }

      .cls-6 {
        fill: #fc8c9c;
      }

      .cls-7 {
        fill: #aee9d6;
      }

      .cls-8 {
        fill: #cd837a;
      }

      .cls-9 {
        fill: #d4928a;
      }

      .cls-10 {
        fill: #5ed7b1;
      }

      .cls-11 {
        clip-path: url(#clippath);
      }
    </style>
    <filter id="drop-shadow-1" filterUnits="userSpaceOnUse">
      <feOffset dx="6.23" dy="6.23"/>
      <feGaussianBlur result="blur" stdDeviation="7.12"/>
      <feFlood flood-color="#000" flood-opacity=".2"/>
      <feComposite in2="blur" operator="in"/>
      <feComposite in="SourceGraphic"/>
    </filter>
    <clipPath id="clippath">
      <rect class="cls-1" x="57.58" y="67.03" width="341.69" height="313.21"/>
    </clipPath>
  </defs>
  <circle class="cls-3" cx="214" cy="214" r="214"/>
  <g class="cls-2">
    <path class="cls-8" d="M394.27,192.54c0,34.35-27.84,62.19-62.19,62.19s-62.19-27.84-62.19-62.19,27.84-62.19,62.19-62.19,62.19,27.84,62.19,62.19h0Zm0,0"/>
    <path class="cls-7" d="M261.96,324.63c-9.25-11.61-22.36-19.95-37.36-23.01-4.13-.84-8.39-1.28-12.76-1.28-20.24,0-38.33,9.49-50.11,24.29-8.85,11.11-14.15,25.21-14.15,40.53v9.8h128.53v-9.8c0-5.01-.57-9.88-1.64-14.56-2.2-9.65-6.56-18.48-12.51-25.96h0Zm0,0"/>
    <path class="cls-10" d="M224.6,301.62c-4.13-.84-8.39-1.28-12.76-1.28-20.24,0-38.33,9.49-50.11,24.29-5.96,7.48-10.31,16.32-12.51,25.97-1.07,4.68-1.64,9.56-1.64,14.56v9.8h25.54v-9.8c0-31.29,22.16-57.55,51.48-63.54h0Zm0,0"/>
    <path class="cls-4" d="M161.63,324.76c-5.91,7.45-10.22,16.24-12.41,25.84-1.07,4.68-1.64,9.56-1.64,14.56v9.8h25.54v-22.24c0-10.47-4.14-20.51-11.49-27.96h0Zm0,0"/>
    <path class="cls-5" d="M262.06,324.76c-7.36,7.45-11.49,17.49-11.49,27.96v22.24h25.53v-9.8c0-5.01-.57-9.88-1.64-14.56-2.19-9.6-6.5-18.38-12.41-25.84h0Zm0,0"/>
    <path class="cls-4" d="M332.08,163.52H91.61c-16.03,0-29.02,13-29.02,29.02s12.99,29.02,29.02,29.02h240.46c16.03,0,29.02-12.99,29.02-29.02s-12.99-29.02-29.02-29.02h0Zm0,0"/>
    <path class="cls-5" d="M231.87,73.98c-6.51-1.09-13.2-1.67-20.02-1.67s-13.51,.58-20.02,1.67c-56.87,9.53-100.21,58.99-100.21,118.56s43.34,109.03,100.21,118.56c6.51,1.09,13.2,1.67,20.02,1.67s13.51-.58,20.02-1.67c56.87-9.53,100.21-58.98,100.21-118.56s-43.34-109.03-100.21-118.56h0Zm0,0"/>
    <path class="cls-4" d="M131.49,192.71c0-59.69,43.42-109.22,100.38-118.73-6.51-1.09-13.2-1.67-20.02-1.67s-13.51,.58-20.02,1.67c-56.87,9.53-100.21,58.99-100.21,118.56s43.34,109.03,100.21,118.56c6.51,1.09,13.2,1.67,20.02,1.67s13.51-.58,20.02-1.67c-56.96-9.51-100.38-58.71-100.38-118.4h0Zm0,0"/>
    <path class="cls-6" d="M146.34,212.96c-13.28,0-24.05,8.54-24.05,19.07s10.77,19.07,24.05,19.07,24.05-8.54,24.05-19.07-10.77-19.07-24.05-19.07h0Zm0,0"/>
    <path class="cls-6" d="M277.35,212.96c-13.28,0-24.05,8.54-24.05,19.07s10.76,19.07,24.05,19.07,24.05-8.54,24.05-19.07-10.76-19.07-24.05-19.07h0Zm0,0"/>
    <path class="cls-9" d="M230.15,128.02c22.8,30.98,61.78,44.61,98.4,35.49-11.41-46.04-49.36-81.61-96.68-89.54-6.51-1.09-13.2-1.67-20.02-1.67s-13.51,.58-20.02,1.67c-56.87,9.53-100.21,58.99-100.21,118.56,0,10.01,1.23,19.73,3.53,29.02,53.5-17.61,100.24-50.3,135.01-93.54h0Zm0,0"/>
    <path class="cls-8" d="M231.87,73.98c-6.51-1.09-13.2-1.67-20.02-1.67s-13.51,.58-20.02,1.67c-56.87,9.53-100.21,58.99-100.21,118.56,0,10.01,1.23,19.73,3.53,29.02,12.78-4.21,25.18-9.28,37.13-15.14-.51-4.49-.78-9.08-.78-13.71,0-59.68,43.42-109.22,100.37-118.73h0Zm0,0"/>
    <path d="M155.06,203.74v9.95c0,2.77,2.24,5.01,5.01,5.01s5.01-2.24,5.01-5.01v-9.95c0-2.77-2.24-5.01-5.01-5.01s-5.01,2.24-5.01,5.01h0Zm0,0"/>
    <path d="M258.62,203.74v9.95c0,2.77,2.24,5.01,5.01,5.01s5.01-2.24,5.01-5.01v-9.95c0-2.77-2.24-5.01-5.01-5.01s-5.01,2.24-5.01,5.01h0Zm0,0"/>
    <g class="cls-11">
      <path d="M228.79,209.62c-2.08-1.82-5.25-1.6-7.06,.48-2.5,2.86-6.1,4.5-9.88,4.5s-7.39-1.64-9.88-4.5c-1.82-2.08-4.98-2.3-7.06-.48-2.09,1.81-2.3,4.98-.49,7.06,4.4,5.04,10.75,7.94,17.43,7.94s13.03-2.89,17.42-7.94c1.82-2.08,1.6-5.25-.48-7.06h0Zm0,0"/>
      <path d="M318.41,126.75c-26.44-42.83-76.46-66.26-127.42-57.71-47.11,7.9-86.38,42.42-99.67,89.48-18.63,.15-33.74,15.35-33.74,34.02s15.11,33.86,33.74,34.02c11.18,39.62,40.69,70.22,77.77,83.7-4.15,3.29-7.93,7.05-11.28,11.25-3.41,4.29-6.32,8.97-8.64,13.93-1.18,2.5-.1,5.48,2.41,6.66,2.51,1.17,5.48,.09,6.66-2.41,1.08-2.32,2.33-4.57,3.71-6.73,4,5.77,6.17,12.61,6.17,19.77v17.23h-15.53v-4.79c0-2.62,.17-5.25,.5-7.81,.35-2.74-1.58-5.25-4.32-5.61-2.73-.36-5.25,1.57-5.61,4.32-.39,3-.58,6.06-.59,9.1v9.8c0,2.77,2.24,5.01,5.01,5.01h128.53c2.77,0,5.01-2.24,5.01-5.01v-9.8c0-16.51-5.75-31.73-15.24-43.65-3.35-4.2-7.13-7.96-11.28-11.25,11.94-4.34,23.24-10.51,33.36-18.27,2.19-1.68,2.61-4.82,.93-7.02-1.68-2.19-4.82-2.61-7.02-.93-14.86,11.39-32.43,19.03-50.83,22.12-12.66,2.12-25.73,2.12-38.39,0-44.89-7.53-79.53-39.99-91.48-81.36,50.3-17.44,94.67-48.01,128.9-88.8,22.46,26.69,58.47,40.53,94.71,33.47,7.32,36.33-2.94,74.12-28.71,101.7-1.89,2.02-1.78,5.19,.24,7.08,2.02,1.88,5.19,1.78,7.07-.24,5.7-6.1,10.72-12.7,15.04-19.68,41.95,8.67,80.85-23.53,80.85-65.79s-38.95-74.46-80.86-65.79h0Zm-47.31,238.41v4.8h-15.52v-17.23c0-7.16,2.16-13.99,6.17-19.77,6.05,9.54,9.36,20.57,9.36,32.2h0Zm-28.65-51.18c4.82,2.94,9.17,6.53,12.97,10.72-6.38,7.93-9.85,17.72-9.85,28.02v17.24h-67.45v-17.24c0-10.3-3.47-20.09-9.86-28.03,3.81-4.18,8.14-7.76,12.95-10.71,19.7,4.96,40.77,5.15,61.23,0h0ZM67.6,192.54c0-12.33,9.34-22.51,21.31-23.86-1.52,7.81-2.3,15.8-2.3,23.86s.78,16.04,2.3,23.86c-11.97-1.35-21.31-11.53-21.31-23.86h0ZM234.18,125.06c-1.95-2.65-5.88-2.72-7.93-.17-33.36,41.49-77.34,72.58-127.45,90.15-1.43-7.29-2.18-14.81-2.18-22.49,0-56.3,40.19-104.26,96.03-113.63,57.3-9.61,113.19,24.61,129.72,80.83-34.52,6.53-68.56-8.01-88.19-34.68h0Zm100.6,43.62c11.97,1.35,21.31,11.53,21.31,23.86s-9.33,22.5-21.29,23.86c2.96-15.37,3.11-31.54-.02-47.72h0Zm-11.16,80.41c3.65-7.2,6.59-14.75,8.78-22.53,18.62-.17,33.71-15.36,33.71-34.02s-15.11-33.87-33.74-34.02c-2.19-7.78-5.13-15.32-8.78-22.53,34.8-5.19,65.68,21.88,65.68,56.55s-30.82,61.72-65.64,56.55h0Zm0,0"/>
    </g>
  </g>
</svg>