<?xml version="1.0" encoding="UTF-8"?>
<svg id="Layer_1" data-name="Layer 1" xmlns="http://www.w3.org/2000/svg" viewBox="0 0 56.22 53.59">
  <defs>
    <style>
      .cls-1 {
        fill: #ff8c00;
      }
    </style>
  </defs>
  <g id="VcXDeC">
    <path class="cls-1" d="M28.02,0c1.01,0,1.61,.45,2.02,1.28,2.39,4.88,4.81,9.74,7.2,14.62,.19,.4,.42,.56,.86,.63,5.32,.76,10.64,1.54,15.95,2.31,1.53,.22,2.36,1.04,2.13,2.3-.09,.48-.41,1-.76,1.35-3.89,3.83-7.8,7.64-11.72,11.45-.28,.27-.36,.51-.29,.91,.95,5.43,1.87,10.87,2.8,16.31,.15,.86-.09,1.56-.79,2.06-.71,.5-1.45,.46-2.21,.06-4.84-2.55-9.69-5.09-14.53-7.65-.39-.21-.68-.22-1.07,0-4.78,2.53-9.57,5.05-14.38,7.55-.45,.24-1.02,.4-1.52,.37-1.11-.06-1.87-1.14-1.67-2.31,.85-5.01,1.66-10.03,2.6-15.03,.26-1.37,.04-2.25-1.02-3.24-3.71-3.46-7.29-7.05-10.92-10.58-.6-.59-.83-1.28-.6-2.08,.24-.83,.85-1.28,1.71-1.4,.73-.1,1.47-.21,2.2-.32,4.73-.69,9.45-1.38,14.18-2.05,.43-.06,.63-.24,.81-.61,2.4-4.9,4.83-9.78,7.23-14.68C26.62,.43,27.21,0,28.02,0Z"/>
  </g>
</svg>