<?xml version="1.0" encoding="UTF-8"?>
<svg id="Layer_1" data-name="Layer 1" xmlns="http://www.w3.org/2000/svg" viewBox="0 0 62.31 54.48">
  <defs>
    <style>
      .cls-1 {
        fill: #ff8c00;
      }
    </style>
  </defs>
  <g id="yuc9Di">
    <g>
      <path class="cls-1" d="M38.3,32.97h-2.58c.45-1.61,.14-3.26,1.03-4.8,1.29-2.22,2.38-4.56,3.4-6.91,.99-2.28,0-5.05-2.1-6.39-2.24-1.42-5.09-1.15-6.84,.72-.49,.52-.9,1.15-1.24,1.78-.71,1.32-1.35,2.67-2.04,4.06-1.44-.71-2.85-1.4-4.25-2.12-.12-.06-.2-.29-.2-.45,0-4.44-.06-8.88,.02-13.32C23.57,2.31,26.11,.02,29.46,0c5.92-.01,11.84,0,17.76,0,3.04,0,6.08-.02,9.12,0,2.44,.02,4.32,1.06,5.36,3.3,.37,.8,.56,1.75,.57,2.64,.04,7.03,.04,14.07,.02,21.1,0,3.43-2.48,5.89-5.92,5.91-2.74,.02-5.47,0-8.21,0h-.76c.08,.26,.13,.46,.21,.66,2.2,5.98,4.4,11.96,6.58,17.95,.17,.47,.25,1.03,.18,1.52-.1,.75-.76,1.27-1.53,1.34-.75,.06-1.35-.23-1.74-.88-.15-.26-.26-.55-.37-.83-2.35-6.4-4.71-12.8-7.04-19.21-.18-.5-.45-.55-.89-.57-.46-.02-.67,.14-.82,.57-2.34,6.47-4.7,12.93-7.04,19.4-.24,.66-.58,1.22-1.28,1.44-.69,.22-1.33,.08-1.85-.45-.56-.58-.66-1.27-.39-2.03,.69-1.9,1.38-3.8,2.08-5.7,1.53-4.2,3.06-8.4,4.59-12.61,.06-.17,.11-.34,.2-.61Zm4.6-21.51c.67,0,1.34,0,2.01,0,2.55,0,5.11,0,7.66,0,.98,0,1.66-.55,1.86-1.42,.27-1.23-.62-2.21-2.05-2.22-6.32,0-12.64,0-18.97,0-.24,0-.49,.02-.72,.07-.8,.18-1.37,.88-1.4,1.7-.03,.8,.5,1.57,1.29,1.78,.29,.08,.6,.08,.9,.08,3.14,0,6.28,0,9.42,0Zm5.72,10.06c-1.34,0-2.68,0-4.01,0-1.15,0-1.94,.75-1.95,1.8,0,1.05,.78,1.83,1.93,1.83,2.66,.02,5.31,.02,7.97,0,1.13,0,1.94-.82,1.93-1.85-.01-1.04-.81-1.78-1.97-1.79-1.3-.01-2.59,0-3.89,0Zm-.05-6.82v-.02c-1.32,0-2.63-.02-3.95,0-1.18,.02-1.95,.75-1.96,1.79-.01,1.07,.78,1.8,1.98,1.84,.34,.01,.69,0,1.03,0,2.21,0,4.42,.03,6.63-.02,.53-.01,1.14-.19,1.57-.49,.61-.42,.76-1.14,.52-1.86-.24-.74-.77-1.22-1.56-1.24-1.42-.04-2.84-.01-4.25-.01Z"/>
      <path class="cls-1" d="M12.82,19.54c2.37-.13,4.5,.67,6.57,1.71,3.37,1.69,6.74,3.36,10.16,5.06,.11-.21,.22-.4,.32-.59,1.15-2.3,2.31-4.59,3.45-6.9,.31-.62,.72-1.08,1.43-1.19,.72-.11,1.33,.11,1.77,.7,.45,.61,.49,1.28,.15,1.95-.88,1.78-1.77,3.55-2.66,5.32-.53,1.07-1.09,2.13-1.59,3.21-.13,.29-.18,.66-.13,.97,.29,1.82-.27,3.33-1.62,4.53-1.42,1.25-3.12,1.66-4.86,.95-1.97-.8-3.83-1.83-5.75-2.75-.21-.1-.43-.2-.75-.35v.86c0,6.34,0,12.69,0,19.03,0,1.79-.62,2.41-2.41,2.41-3.55,0-7.1,0-10.65,0-1.7,0-2.34-.65-2.34-2.36,0-3.04,0-6.08,0-9.12,0-.4-.11-.6-.49-.77-1.9-.85-3.2-2.33-3.3-4.39-.15-2.92-.24-5.9,.15-8.79,.66-4.91,4.76-8.66,9.65-9.35,.28-.04,.56-.1,.89-.15-4.91-.71-7.4-4.75-7.14-8.5,.27-3.9,3.48-7.12,7.38-7.37,4.05-.26,7.56,2.46,8.37,6.44,.76,3.75-1.59,8.51-6.6,9.42Z"/>
    </g>
  </g>
</svg>