<?xml version="1.0" encoding="UTF-8"?>
<svg id="Layer_1" data-name="Layer 1" xmlns="http://www.w3.org/2000/svg" xmlns:xlink="http://www.w3.org/1999/xlink" viewBox="0 0 428 428">
  <defs>
    <style>
      .cls-1 {
        filter: url(#drop-shadow-1);
      }

      .cls-2 {
        fill: #676f72;
      }

      .cls-3 {
        fill: #ebebeb;
      }

      .cls-4 {
        fill: #fdcc71;
      }

      .cls-5 {
        fill: #edebec;
      }

      .cls-6 {
        fill: #fae19e;
      }

      .cls-7 {
        fill: #d99c80;
      }

      .cls-8 {
        fill: #d2d2d3;
      }

      .cls-9 {
        fill: #c5846a;
      }

      .cls-10 {
        fill: #4c5659;
      }
    </style>
    <filter id="drop-shadow-1" filterUnits="userSpaceOnUse">
      <feOffset dx="7" dy="7"/>
      <feGaussianBlur result="blur" stdDeviation="8"/>
      <feFlood flood-color="#000" flood-opacity=".2"/>
      <feComposite in2="blur" operator="in"/>
      <feComposite in="SourceGraphic"/>
    </filter>
  </defs>
  <circle class="cls-3" cx="214" cy="214" r="214"/>
  <g class="cls-1">
    <path class="cls-8" d="M215.98,285.78c-11,0-21.55,1.92-31.36,5.43-23.75,8.5-43.69,26.65-54.17,50.68-4.96,11.39-7.73,23.94-7.73,37.14h93.25v-93.25Zm0,0"/>
    <path class="cls-5" d="M301.51,341.89c-10.09-23.13-29.5-41.86-54.18-50.69-9.84-3.52-20.43-5.42-31.35-5.42v93.25h93.25c0-13.19-2.76-25.75-7.73-37.14h0Zm0,0"/>
    <path class="cls-2" d="M270.94,305.91l-.5-2.53c-6.99-5.05-14.75-9.18-23.11-12.17-9.84-3.53-20.43-5.43-31.35-5.43s-21.55,1.92-31.36,5.43c-8.24,2.95-16.02,7.06-23.11,12.18-4.89,24.58-7.7,48.35-7.7,75.64h124.32c0-24.56-2.41-49.05-7.2-73.12h0Zm0,0"/>
    <path class="cls-10" d="M215.98,285.78c-20.35,0-39.17,6.57-54.46,17.61h0c-4.89,24.59-7.7,48.36-7.7,75.65h23.6c.04-40.52,24.23-75.39,58.94-91-6.58-1.48-13.41-2.25-20.37-2.25h0Zm0,0"/>
    <path class="cls-5" d="M241.25,325.01h-50.53c-12.39,0-19.71-13.88-12.72-24.1l6.63-9.7,31.35-16.87,31.35,16.87,6.63,9.7c6.99,10.22-.33,24.1-12.71,24.1h0Zm0,0"/>
    <path class="cls-9" d="M215.98,274.34l-31.35,16.86c5.51,14.44,16.52,25.87,31.35,33.81,14.83-7.93,25.83-19.37,31.34-33.81l-31.34-16.86Zm0,0"/>
    <path class="cls-9" d="M177.29,221.91c0,9.78-9.96,17.71-22.25,17.71s-22.25-7.93-22.25-17.71,9.96-17.71,22.25-17.71,22.25,7.93,22.25,17.71h0Zm0,0"/>
    <path class="cls-9" d="M276.83,204.19c-12.34,0-22.34,7.93-22.34,17.71s10,17.71,22.34,17.71,22.34-7.93,22.34-17.71-10-17.71-22.34-17.71h0Zm0,0"/>
    <path class="cls-9" d="M131.99,183.88c0,15.35-12.44,27.79-27.79,27.79s-27.79-12.44-27.79-27.79,12.44-27.79,27.79-27.79c7.37,0,14.44,2.93,19.65,8.14,5.21,5.21,8.14,12.28,8.14,19.65h0Zm0,0"/>
    <path class="cls-9" d="M355.56,183.88c0,15.35-12.44,27.79-27.79,27.79s-27.79-12.44-27.79-27.79,12.44-27.79,27.79-27.79,27.79,12.44,27.79,27.79h0Zm0,0"/>
    <path class="cls-7" d="M247.32,291.2c46.48-13.55,80.44-56.47,80.44-107.32,0-55.42-40.34-101.43-93.25-110.25-6.03-1.01-12.22-1.53-18.53-1.53-61.73,0-111.78,50.04-111.78,111.78,0,50.85,33.97,93.77,80.44,107.32,9.94,2.9,20.46,4.46,31.34,4.46,6.31,0,12.5-.53,18.53-1.53,4.36-.73,8.63-1.71,12.81-2.93h0Zm0,0"/>
    <path class="cls-9" d="M141.26,183.88c0-15.18,3.03-29.66,8.52-42.86l-23.64-23.64c-13.78,18.58-21.93,41.59-21.93,66.5,0,61.73,50.05,111.78,111.78,111.78,6.31,0,12.5-.53,18.53-1.53-52.91-8.83-93.25-54.83-93.25-110.25h0Zm0,0"/>
    <path class="cls-6" d="M294.97,67.86c-8.14-4.69-18.82-5.61-27.86-2.19-.19,.07-.38,.15-.57,.23-3.06-7.89-11.15-14.11-21.49-15.94-9.34-1.65-19.03-2.52-28.96-2.52-29.62,0-57.07,7.72-79.48,20.82-18.02,10.54-28.98,29.95-28.98,50.82v37.2h22.44c13.29,0,24.25-10.68,24.3-23.97v-.25c0-10.94,8.15-20.16,19-21.52,28.31-3.54,56.94-3.54,85.24,0,10.85,1.36,19,10.58,19,21.52v.25c.05,13.29,11,23.97,24.3,23.97h22.44v-37.39c0-20.89-10.97-40.36-29.04-50.85-.11-.07-.22-.13-.33-.19h0Zm0,0"/>
    <path class="cls-4" d="M215.62,47.45c-29.44,.08-56.72,7.79-79.01,20.82-18.02,10.54-28.98,29.95-28.98,50.82v37.2h22.44c13.29,0,24.25-10.68,24.3-23.97v-.25c0-10.94,8.15-20.16,19-21.52,14-1.75,28.07-2.63,42.15-2.65-10.96-18.07-11.01-42.22,.11-60.45h0Zm0,0"/>
    <path d="M239.09,336.74c-3.19,0-5.78,2.59-5.78,5.77s2.59,5.78,5.78,5.78,5.77-2.59,5.77-5.78-2.59-5.77-5.77-5.77h0Zm0,0"/>
    <path d="M239.09,361.7c-3.19,0-5.78,2.59-5.78,5.77s2.59,5.77,5.78,5.77,5.77-2.59,5.77-5.77-2.59-5.77-5.77-5.77h0Zm0,0"/>
    <path d="M162.88,195.72v9.24c0,2.77,2.24,5,5,5s5-2.24,5-5v-9.24c0-2.76-2.24-5-5-5s-5,2.24-5,5h0Zm0,0"/>
    <path d="M259.08,195.72v9.24c0,2.77,2.24,5,5,5s5-2.24,5-5v-9.24c0-2.76-2.24-5-5-5s-5,2.24-5,5h0Zm0,0"/>
    <path d="M224.89,201.4c-2.25,2.58-5.5,4.06-8.91,4.06s-6.66-1.48-8.91-4.06c-1.82-2.09-4.98-2.3-7.06-.49-2.08,1.82-2.3,4.98-.48,7.06,4.15,4.76,10.15,7.49,16.45,7.49s12.3-2.73,16.45-7.49c1.82-2.09,1.6-5.24-.49-7.06-2.08-1.81-5.24-1.6-7.06,.49h0Zm0,0"/>
    <path d="M329.34,151.14v-32.23c0-34.13-29.48-67.08-60.27-59.1-4.64-7.5-13.12-13-23.15-14.77-9.74-1.72-19.78-2.59-29.83-2.59-29.58,0-57.94,7.44-82,21.51-19.41,11.35-31.46,32.48-31.46,55.14v8.09c0,2.77,2.24,5,5,5s5-2.24,5-5v-8.09c0-19.13,10.15-36.94,26.5-46.5,22.53-13.17,49.14-20.14,76.95-20.14,9.47,0,18.92,.82,28.09,2.44,8.42,1.49,15.2,6.4,17.69,12.82,.92,2.38,3.59,4.04,7,2.64,7.24-2.74,16.29-2.37,23.91,2.03,16.37,9.51,26.54,27.33,26.54,46.52v32.38h-17.43c-10.6,0-19.25-8.52-19.29-19.01v-.21c0-13.43-10.05-24.82-23.38-26.48-28.69-3.59-57.78-3.59-86.48,0-13.33,1.66-23.38,13.05-23.38,26.48v.23c-.04,10.47-8.69,18.99-19.29,18.99h-17.44v-4.1c0-2.76-2.24-5-5-5s-5,2.24-5,5v3.94c-17.68,.86-31.22,15.42-31.22,32.74s14.32,32.57,32.43,32.78c3.95,13.58,10.4,26.38,19.18,37.9,12.45,16.35,29.2,29.22,48.04,37.12-31.96,16.52-53.32,49.73-53.32,87.35,0,2.76,2.24,5,5,5h186.51c2.76,0,5-2.24,5-5,0-37.59-21.33-70.81-53.31-87.35,6.16-2.57,12.11-5.67,17.77-9.28,2.33-1.49,3.02-4.58,1.53-6.91-1.48-2.33-4.58-3.02-6.91-1.53-17.16,10.94-36.96,16.69-57.34,16.69-60.28,0-106.77-49.51-106.77-106.78,0-7.61,.81-15.19,2.4-22.58h18.46c16.1,0,29.24-12.99,29.3-28.94v-.29c0-8.4,6.28-15.51,14.62-16.55,27.86-3.48,56.12-3.48,84,0,8.33,1.04,14.61,8.16,14.61,16.55v.27c.06,15.97,13.2,28.96,29.3,28.96h18.46c1.59,7.38,2.4,14.96,2.4,22.58,0,29.68-12.51,58.27-34.32,78.42-2.03,1.88-2.15,5.04-.28,7.07,1.87,2.03,5.04,2.15,7.07,.28,15.64-14.46,26.91-32.88,32.81-53,18.18-.16,32.51-14.94,32.51-32.78,0-17.32-13.55-31.88-31.22-32.74h0Zm-56.24,222.89h-52.12v-44.01h20.26c14.12,0,23.88-13.96,19.26-27.13,1.84,1.08,3.64,2.23,5.4,3.44,4.65,23.88,6.91,45.06,7.19,67.71h0Zm-107.06-67.7c1.76-1.21,3.56-2.36,5.4-3.44-4.6,13.15,5.13,27.13,19.27,27.13h20.26v44.01h-52.13c.29-22.65,2.55-43.83,7.19-67.7h0Zm83.78-2.59c4.73,6.92-.22,16.27-8.58,16.27h-8.87c6.52-5.46,11.83-11.76,15.75-18.76l1.7,2.49Zm-59.11,16.27c-8.38,0-13.31-9.36-8.59-16.27l1.7-2.48c3.93,6.99,9.23,13.3,15.76,18.75h-8.87Zm-36.64-3.78c-3.33,19.87-5,38.3-5.24,57.81h-20.97c1.23-22.02,10.7-42.51,26.21-57.81h0Zm150.01,57.81h-20.98c-.24-19.51-1.9-37.94-5.24-57.82,15.45,15.22,24.98,35.69,26.22,57.82h0Zm-66.02-75.47c-5.13,8.19-12.61,15.23-22.09,20.72-9.49-5.5-16.97-12.54-22.11-20.73,7.26,1.4,14.66,2.12,22.11,2.12s14.74-.69,22.09-2.1h0ZM81.42,183.88c0-11.48,8.62-21.26,19.99-22.62-1.46,7.43-2.21,15.01-2.21,22.62s.74,15.24,2.17,22.61c-11.3-1.36-19.96-11.08-19.96-22.61h0Zm249.12,22.62c1.47-7.4,2.24-14.98,2.24-22.62s-.75-15.2-2.2-22.62c11.35,1.36,19.98,11.12,19.98,22.62,0,11.54-8.67,21.28-20.02,22.62h0Zm0,0"/>
  </g>
</svg>