<?xml version="1.0" encoding="UTF-8"?>
<svg id="Layer_1" data-name="Layer 1" xmlns="http://www.w3.org/2000/svg" viewBox="0 0 86.8 86.8">
  <defs>
    <style>
      .cls-1 {
        fill: #fff;
      }

      .cls-2 {
        fill: #d40023;
      }
    </style>
  </defs>
  <rect class="cls-2" width="86.8" height="86.8" rx="9.64" ry="9.64"/>
  <g id="_GzHiV" data-name="3GzHiV">
    <path class="cls-1" d="M50.15,55.92c-5.95,3.91-12.34,5.09-19.18,3.31-5.5-1.44-9.86-4.6-13.1-9.28-6.2-8.97-5.05-21.36,2.71-29.24,7.67-7.79,20.13-9.03,29.23-2.91,3.45,2.32,6.08,5.37,7.91,9.11,1.83,3.74,2.54,7.71,2.23,11.84-.31,4.13-1.67,7.92-4.06,11.4,1.35,.27,2.25,1.09,3.12,1.97,4.06,4.08,8.14,8.15,12.21,12.22,1.36,1.36,1.99,2.97,1.48,4.87-1.03,3.82-5.48,4.91-8.34,2.06-3.85-3.83-7.69-7.68-11.53-11.52-.2-.2-.4-.41-.61-.61-.94-.89-1.81-1.82-2.08-3.21Zm4.05-18.96c-.02-9.5-7.74-17.21-17.24-17.2-9.51,0-17.22,7.71-17.21,17.22,.01,9.51,7.74,17.24,17.22,17.22,9.5-.02,17.24-7.77,17.22-17.23Z"/>
  </g>
</svg>