<?xml version="1.0" encoding="UTF-8"?>
<svg id="Layer_1" data-name="Layer 1" xmlns="http://www.w3.org/2000/svg" viewBox="0 0 117 117">
  <defs>
    <style>
      .cls-1 {
        fill: #fff;
      }

      .cls-2 {
        fill: #ff8c00;
      }
    </style>
  </defs>
  <circle class="cls-2" cx="58.5" cy="58.5" r="58.5"/>
  <g id="GrG25j">
    <path class="cls-1" d="M86.93,59.36c1.55,1.54,3.14,3.07,4.68,4.65,2.47,2.54,2.52,6.32,.14,8.81-1.15,1.21-2.59,1.82-4.28,1.93-.09,.49-.16,.96-.28,1.42-.63,2.47-2.72,4.29-5.25,4.6-.28,.03-.59-.03-.66,.44-.54,3.39-2.38,5.19-5.8,5.69-.06,0-.12,.03-.06,.01-.33,.98-.51,1.94-.95,2.78-1.89,3.59-6.71,4.41-9.69,1.66-1.51-1.4-2.92-2.89-4.38-4.34-.17-.17-.34-.32-.55-.52-1.52,1.53-3.03,3.02-4.52,4.52-.9,.91-1.95,1.55-3.2,1.82-3.72,.81-7.2-1.71-7.62-5.5-.01-.11-.02-.22-.03-.37-.42-.07-.85-.13-1.27-.23-2.59-.63-4.46-2.75-4.75-5.4-.04-.39-.18-.51-.55-.56-3.08-.42-5.09-2.42-5.53-5.51-.06-.4-.2-.52-.6-.57-2.44-.33-4.19-1.63-5.09-3.91-.91-2.33-.54-4.55,1.14-6.42,1.4-1.56,2.94-3,4.43-4.48,.18-.18,.42-.31,.64-.47-1.76-2.21-2.95-4.52-3.66-7.08-3.04-10.98,4.11-22.18,15.35-23.99,5.46-.88,10.42,.39,14.83,3.73,.35,.26,.55,.26,.89,0,11.28-8.69,27.82-2.48,30.51,11.5,1.07,5.57-.15,10.68-3.54,15.25-.09,.12-.18,.24-.27,.37-.02,.03-.03,.08-.08,.18Zm-33.21-15.48c-.19,.23-.34,.45-.53,.63-4.01,4.01-8.02,8.02-12.02,12.03-3.37,3.37-6.74,6.75-10.13,10.12-.65,.65-1.01,1.38-.81,2.3,.19,.88,.73,1.5,1.6,1.75,.89,.25,1.69,.05,2.36-.61,1.44-1.44,2.87-2.88,4.32-4.31,.67-.67,1.57-.79,2.35-.37,.73,.39,1.18,1.2,.98,2.04-.1,.44-.37,.9-.68,1.23-1.38,1.44-2.81,2.82-4.21,4.24-.69,.7-.89,1.55-.54,2.48,.33,.87,1,1.37,1.92,1.48,.8,.09,1.45-.22,2-.78,1.4-1.41,2.8-2.83,4.23-4.22,1.07-1.04,2.74-.72,3.25,.6,.34,.87,.1,1.62-.55,2.27-1.41,1.4-2.82,2.82-4.23,4.22-.67,.67-.86,1.48-.6,2.36,.25,.86,.87,1.4,1.76,1.59,.87,.18,1.59-.12,2.2-.73,1.39-1.39,2.79-2.78,4.18-4.18,.57-.57,1.24-.83,2.03-.6,1.5,.43,1.93,2.19,.79,3.35-1.39,1.43-2.81,2.82-4.22,4.23-.68,.67-.94,1.47-.67,2.39,.51,1.72,2.57,2.23,3.9,.95,1.5-1.44,2.93-2.95,4.43-4.39,.36-.35,.38-.62,.21-1.07-1.37-3.56,.72-7.45,4.44-8.31,.4-.09,.81-.14,1.22-.22,.11-1.65,.7-3.05,1.84-4.2,1.16-1.17,2.6-1.72,4.22-1.86,.13-1.66,.7-3.07,1.85-4.22,1.16-1.16,2.6-1.73,4.22-1.86,.04-.24,.07-.43,.09-.62,.51-3.94,4.56-6.43,8.3-5.05,.57,.21,.8,.06,1.1-.36,2.25-3.17,3.2-6.69,2.81-10.54-1-9.86-11.08-16.11-20.39-12.69-1.43,.53-2.77,1.24-4.06,2.26,.29,.25,.53,.44,.75,.65,2.26,2.26,4.53,4.51,6.78,6.78,2.12,2.14,2.58,5.09,1.21,7.59-2.02,3.68-6.89,4.37-9.96,1.38-2.41-2.35-4.77-4.76-7.16-7.14-.17-.17-.34-.33-.6-.57Zm-18.03,12.69c.22-.28,.37-.5,.55-.69,5.28-5.28,10.55-10.56,15.83-15.84,1.18-1.18,2.22-1.19,3.39-.02,2.91,2.91,5.82,5.82,8.73,8.73,1.01,1.01,2.47,1.03,3.4,.08,.92-.94,.9-2.34-.1-3.35-3.1-3.12-6.19-6.25-9.34-9.32-2.54-2.47-5.64-3.82-9.15-4.11-8.82-.74-16.32,6.03-16.5,14.88-.07,3.51,.98,6.67,3.19,9.63Zm30.95,18.29c.15,.29,.35,.95,.77,1.39,1.95,2.03,3.96,4.01,5.97,5.99,.99,.98,2.41,.97,3.34,.03,.91-.93,.88-2.35-.09-3.35-.58-.59-1.17-1.18-1.76-1.76-1.41-1.41-2.8-2.82-4.22-4.21-.72-.71-1.59-.91-2.53-.53-.91,.38-1.39,1.09-1.47,2.44Zm-3.4,3.46c-1.31,.04-2.06,.48-2.45,1.38-.42,.95-.25,1.86,.48,2.6,2.01,2.04,4.03,4.07,6.08,6.07,.96,.94,2.39,.9,3.29-.02,.88-.9,.91-2.3,0-3.24-2.02-2.06-4.05-4.1-6.13-6.11-.39-.38-1-.54-1.26-.68Zm18.03-18.36c-1.05,.13-1.89,.65-2.26,1.53-.41,.97-.22,1.85,.51,2.59,2,2.02,4,4.03,6.03,6.02,.96,.94,2.39,.93,3.3,.03,.92-.91,.94-2.33,0-3.29-2.01-2.04-4.03-4.07-6.08-6.06-.4-.38-.99-.56-1.5-.83Zm-5.89,6.19c-1.3,.06-2.04,.5-2.44,1.41-.41,.93-.26,1.82,.45,2.54,2.02,2.06,4.06,4.1,6.12,6.12,.94,.92,2.34,.9,3.25,.01,.92-.9,.97-2.33,.02-3.29-2-2.04-4.02-4.08-6.08-6.06-.41-.4-1.03-.57-1.32-.73Z"/>
  </g>
</svg>