<?xml version="1.0" encoding="UTF-8"?>
<svg id="Layer_1" data-name="Layer 1" xmlns="http://www.w3.org/2000/svg" viewBox="0 0 97.43 137.52">
  <defs>
    <style>
      .cls-1 {
        fill: #fff;
      }

      .cls-2 {
        fill: #e4332a;
      }
    </style>
  </defs>
  <g>
    <g>
      <polygon class="cls-1" points="50.37 91.86 16.83 87.07 0 58.96 0 137.52 50.37 91.86"/>
      <path class="cls-1" d="M75.26,97.29H22.31C10.09,97.29,.14,87.34,.14,75.12V22.17C.14,9.94,10.09,0,22.31,0h52.95c12.22,0,22.17,9.94,22.17,22.17v52.95c0,12.22-9.94,22.17-22.17,22.17ZM22.31,16c-3.4,0-6.17,2.77-6.17,6.17v52.95c0,3.4,2.77,6.17,6.17,6.17h52.95c3.4,0,6.17-2.77,6.17-6.17V22.17c0-3.4-2.77-6.17-6.17-6.17H22.31Z"/>
    </g>
    <rect class="cls-1" x="13.24" y="10.78" width="73" height="76"/>
  </g>
  <g id="v1tw5h">
    <g>
      <path class="cls-2" d="M36.93,54.95c-4.25,0-8.48-.2-12.66-1.04-1.78-.36-3.52-.93-5.25-1.47-.94-.29-1.29-.87-1.26-1.87,.05-1.84-.06-3.7,.24-5.5,.76-4.55,4.61-8.15,9.17-8.74,.38-.05,.85,.11,1.18,.33,2.82,1.87,5.9,2.78,9.28,2.64,2.73-.12,5.27-.91,7.54-2.44,.71-.48,1.36-.6,2.19-.44,4.67,.9,8.45,5.16,8.71,9.91,.08,1.45,.06,2.9,.06,4.35,0,.88-.42,1.46-1.25,1.79-2.33,.92-4.76,1.44-7.23,1.81-3.56,.53-7.14,.71-10.74,.7Z"/>
      <path class="cls-2" d="M48.31,24.03c.05,6.2-5.04,11.33-11.29,11.37-6.25,.05-11.37-5.02-11.43-11.3-.05-6.23,5.02-11.34,11.32-11.39,6.25-.05,11.34,5.01,11.39,11.32Zm-16.65,4.55c.41,1.7,2.78,2.98,5.4,2.93,2.57-.04,4.83-1.31,5.18-2.93h-10.57Z"/>
      <path class="cls-2" d="M58.52,46.32c-.94-6.82-4.74-10.93-11.48-12.4,.89-.9,1.91-1.53,3.06-1.97,.21-.08,.42-.14,.63-.21,.94-.32,1.73-.21,2.66,.33,4.35,2.55,8.73,2.44,13-.26,.45-.28,.86-.37,1.36-.28,4.13,.78,7.11,4.29,7.18,8.48,.02,.97,0,1.93,0,2.9,0,.7-.32,1.15-.97,1.41-2.05,.83-4.2,1.32-6.38,1.52-2.9,.27-5.82,.34-8.74,.49-.11,0-.22-.01-.34-.02Z"/>
      <path class="cls-2" d="M59.66,30.76c-4.96,0-9-4.03-9.04-9.01-.04-4.96,4.06-9.06,9.05-9.05,5.01,0,9.04,4.05,9.02,9.06-.02,4.98-4.06,9-9.03,9Zm-4.32-5.6c.3,1.46,2.33,2.5,4.68,2.42,1.94-.07,3.78-1.19,3.94-2.42h-8.62Z"/>
    </g>
  </g>
</svg>