<?xml version="1.0" encoding="UTF-8"?>
<svg id="Layer_1" data-name="Layer 1" xmlns="http://www.w3.org/2000/svg" viewBox="0 0 56.82 70.05">
  <defs>
    <style>
      .cls-1 {
        fill: #ff8c00;
      }
    </style>
  </defs>
  <g id="IXeLIT">
    <g>
      <path class="cls-1" d="M0,28.34C.21,15.4,8.91,4.18,21.42,.91c15.37-4.02,31.22,5.68,34.72,21.21,1.48,6.59,.45,12.86-2.3,18.92-2.71,5.98-6.56,11.2-10.9,16.08-3.98,4.47-8.33,8.55-13.03,12.26-1.13,.89-1.7,.9-2.83,0-7.42-5.92-14.08-12.58-19.45-20.44-3.13-4.57-5.67-9.44-6.81-14.91-.39-1.87-.55-3.79-.81-5.69Zm50.78,.56c-.24-8.91-3.91-15.82-11.71-20.02-8.1-4.36-16.2-3.76-23.68,1.59-6.21,4.45-9.08,10.75-9.15,18.45h9.97v14.46h-3.95c8.33,9.59,24.28,9.53,32.48-.03h-3.98v-14.46h10.01Z"/>
      <path class="cls-1" d="M32.33,43.34c0-1.39,0-2.75,.01-4.11,0-1.34,.02-2.69,.01-4.03,0-1.15-.66-1.81-1.81-1.83-1.34-.02-2.69-.02-4.03-.02-1.28,0-1.93,.64-1.94,1.91-.01,2.66-.02,5.32-.03,8.03l-6.67-.02v-.74c.03-9.03,.06-18.06,.09-27.09,0-1.56,.58-2.13,2.14-2.13,5.63,.02,11.25,.04,16.88,.06,1.52,0,2.1,.58,2.1,2.1-.03,9.05-.06,18.11-.09,27.16v.72l-6.67-.02Zm-12.13-25.02c0,.41-.03,.83,0,1.24,.07,.89,.79,1.55,1.65,1.55,.86,0,1.6-.65,1.65-1.54,.05-.8,.05-1.61,.01-2.42-.04-.92-.79-1.6-1.68-1.58-.86,.02-1.56,.68-1.63,1.57-.03,.39,0,.78,0,1.18Zm9.99,.06h0c0-.39,.02-.78,0-1.18-.06-.93-.77-1.61-1.66-1.61-.89,0-1.61,.69-1.65,1.62-.03,.76-.03,1.52,0,2.28,.03,.93,.74,1.63,1.63,1.65,.91,.02,1.64-.68,1.69-1.65,.02-.37,0-.74,0-1.11Zm3.35,.02c0,.39-.02,.79,0,1.18,.06,.89,.75,1.57,1.61,1.59,.89,.02,1.64-.65,1.69-1.57,.04-.78,.04-1.57,.01-2.35-.04-.93-.76-1.62-1.64-1.62-.89,0-1.61,.68-1.67,1.6-.02,.39,0,.78,0,1.18Zm-10.05,8.85h0c0-.41,.03-.83,0-1.24-.07-.89-.8-1.54-1.66-1.53-.86,0-1.59,.67-1.64,1.55-.04,.8-.05,1.61,0,2.42,.04,.89,.77,1.56,1.63,1.57,.89,.01,1.61-.66,1.68-1.59,.03-.39,0-.78,0-1.18Zm3.35,0c0,.41-.03,.83,0,1.24,.07,.88,.8,1.54,1.66,1.54,.83,0,1.57-.63,1.63-1.49,.06-.85,.06-1.71,0-2.56-.05-.85-.78-1.49-1.62-1.5-.86-.01-1.6,.64-1.68,1.52-.04,.41,0,.83-.01,1.24Zm9.98,.03h0c0-.39,.02-.79,0-1.18-.06-.92-.79-1.6-1.67-1.59-.86,.01-1.59,.67-1.63,1.56-.04,.8-.05,1.61,0,2.42,.04,.88,.78,1.55,1.63,1.56,.86,0,1.59-.65,1.66-1.53,.04-.41,0-.83,.01-1.24Z"/>
    </g>
  </g>
</svg>