<?xml version="1.0" encoding="UTF-8"?>
<svg id="Layer_1" data-name="Layer 1" xmlns="http://www.w3.org/2000/svg" viewBox="0 0 118 111">
  <defs>
    <style>
      .cls-1 {
        fill: #fff;
      }

      .cls-2 {
        fill: #78c710;
      }
    </style>
  </defs>
  <rect class="cls-2" width="118" height="111" rx="25.46" ry="25.46"/>
  <g id="Xivev2">
    <g>
      <path class="cls-1" d="M30.46,55.5c0-10.14,0-20.28,0-30.42,0-3.71,2.13-6.57,5.51-7.39,.68-.16,1.39-.23,2.09-.23,10.47-.01,20.93,0,31.4-.02,.84,0,1.5,.26,2.1,.86,6.37,6.4,12.76,12.78,19.15,19.15,.58,.58,.83,1.22,.83,2.03,0,15.51,0,31.02-.01,46.53,0,4.48-3.1,7.55-7.6,7.55-15.29,0-30.59,.01-45.88,0-4.52,0-7.59-3.1-7.59-7.64-.01-10.14,0-20.28,0-30.42ZM68.16,21.06h-.93c-9.68,0-19.36,0-29.04,0-2.69,0-4.09,1.42-4.09,4.13,0,20.2,0,40.4,0,60.6,0,2.76,1.4,4.16,4.14,4.16,15.19,0,30.37,0,45.56,0,2.7,0,4.12-1.41,4.12-4.1,0-14.7,0-29.39,0-44.09,0-.29-.03-.57-.04-.91h-.97c-3.96,0-7.92,0-11.88,0-4.23,0-6.87-2.63-6.87-6.84,0-3.99,0-7.97,0-11.96v-.99Zm3.6,2.84v.66c0,3.17,0,6.34,0,9.52,0,2.09,1.06,3.14,3.16,3.15,3.17,0,6.35,0,9.52,0,.23,0,.47-.03,.63-.04-4.42-4.41-8.84-8.83-13.3-13.29Z"/>
      <path class="cls-1" d="M59.24,81.88c-5.42,0-10.84,0-16.26,0-.3,0-.6,0-.89-.01-1-.07-1.73-.86-1.71-1.82,.02-.92,.74-1.68,1.7-1.76,.22-.02,.43-.01,.65-.01,11.05,0,22.11,0,33.16,0,.16,0,.33,0,.49,0,1.11,.05,1.89,.81,1.87,1.83-.02,1-.77,1.74-1.85,1.76-1.57,.03-3.14,.01-4.71,.01-4.15,0-8.29,0-12.44,0Z"/>
      <path class="cls-1" d="M53.77,46.02c2.01-.04,4.01-.07,5.92,.72,4.23,1.75,6.85,6.07,6.43,10.66-.09,1.04-.81,1.76-1.75,1.79-.96,.03-1.76-.73-1.85-1.79-.07-.86-.02-1.75-.2-2.58-.66-3.04-3.24-5.13-6.34-5.19-1.52-.03-3.04-.03-4.55,0-3.42,.09-6.22,2.83-6.4,6.25-.02,.49,0,.98-.04,1.46-.08,1.08-.82,1.84-1.79,1.85-.97,.01-1.72-.74-1.82-1.82-.54-6.15,4.18-11.33,10.35-11.36,.68,0,1.36,0,2.03,0Z"/>
      <path class="cls-1" d="M61.04,37.89c.01,4.03-3.23,7.33-7.23,7.35-4.05,.02-7.33-3.25-7.35-7.32-.02-4.01,3.25-7.3,7.27-7.3,4.03,0,7.29,3.24,7.3,7.27Zm-10.96,.04c0,2.04,1.64,3.69,3.66,3.69,2.07,0,3.71-1.66,3.69-3.74-.02-2.02-1.67-3.66-3.7-3.65-2.01,0-3.66,1.68-3.65,3.7Z"/>
      <path class="cls-1" d="M53.11,68.8c3.63,0,7.26-.01,10.9,0,1.08,0,1.84,.76,1.86,1.74,.02,.98-.74,1.76-1.79,1.84-.24,.02-.49,0-.73,0-4.55,0-9.11,0-13.66,0-2.3,0-4.61,0-6.91,0-.27,0-.55,.01-.81-.03-.95-.15-1.63-.97-1.58-1.87,.05-.94,.77-1.66,1.75-1.69,1.19-.04,2.39-.01,3.58-.01,2.47,0,4.93,0,7.4,0h0Z"/>
    </g>
  </g>
</svg>