<?xml version="1.0" encoding="UTF-8"?>
<svg id="Layer_1" data-name="Layer 1" xmlns="http://www.w3.org/2000/svg" viewBox="0 0 117 117">
  <defs>
    <style>
      .cls-1 {
        fill: #fff;
      }

      .cls-2 {
        fill: #ff8c00;
      }
    </style>
  </defs>
  <circle class="cls-2" cx="58.5" cy="58.5" r="58.5"/>
  <g id="IqNMnt">
    <g>
      <path class="cls-1" d="M32.71,69.54c-1.65-2.99-1.72-5.93,.34-8.69,2.02-2.7,4.8-3.54,8.1-2.86v-4.38c-.24-.06-.5-.13-.76-.2-3.92-1.15-6.76-4.78-6.82-8.86-.06-4.05-.07-8.11,0-12.16,.09-5.03,4.22-9.18,9.25-9.25,5.24-.07,10.48-.05,15.72,0,2.84,.03,5.22,1.19,7.07,3.35,.29,.34,.58,.47,1.03,.46,2.25-.02,4.5-.01,6.75,0,5.64,.01,9.8,4.17,9.82,9.81,0,2.38,0,4.75,0,7.13,0,4.81-2.72,8.38-7.36,9.67-.08,.02-.15,.05-.25,.08v4.36c3.34-.7,6.15,.17,8.17,2.93,2.01,2.75,1.92,5.68,.37,8.47,1.13,.68,2.31,1.23,3.31,2.02,2.25,1.78,3.44,4.17,3.51,7.04,.07,2.61,.03,5.22,.02,7.83,0,1.21-.79,2.01-1.99,2.01-7.57,0-15.15,0-22.72,0-1.24,0-2.01-.8-2.02-2.05-.01-2.48-.02-4.96,0-7.45,.03-4.16,2.61-7.75,6.52-9.1,.12-.04,.23-.09,.41-.16-1.8-3.18-1.58-6.23,.65-9.16-.88-.88-1.73-1.73-2.58-2.58-1.22-1.21-2.42-2.44-3.66-3.63-.21-.21-.58-.36-.87-.36-4.22-.02-8.44-.02-12.67,0-.23,0-.53,.06-.68,.2-2.13,2.1-4.23,4.22-6.39,6.38,2.19,2.89,2.44,5.94,.71,8.99,1.13,.68,2.31,1.23,3.31,2.02,2.27,1.79,3.46,4.21,3.52,7.1,.06,2.59,.03,5.18,.01,7.76,0,1.24-.8,2.02-2.05,2.02-7.55,0-15.11,0-22.66,0-1.24,0-2.02-.79-2.03-2.04-.01-2.52-.02-5.05,0-7.57,.04-4.04,2.64-7.62,6.45-8.96,.16-.05,.31-.12,.47-.19Zm12.3-14.6c1.48-1.48,2.83-2.82,4.16-4.18,.52-.53,1.12-.78,1.87-.78,2.33,.02,4.67,.02,7,0,.59,0,1.2-.05,1.76-.21,2.69-.75,4.29-2.89,4.3-5.74,.01-3.67,0-7.34,0-11.01,0-3.63-2.44-6.07-6.06-6.08-4.88,0-9.76,0-14.64,0-3.58,0-6.02,2.46-6.03,6.05,0,3.65-.01,7.3,0,10.94,0,.59,.06,1.2,.21,1.76,.72,2.57,2.62,4.06,5.37,4.28,1.4,.11,2.05,.81,2.05,2.22,0,.84,0,1.69,0,2.74Zm26.74,0c0-.98,0-1.76,0-2.53,0-1.68,.55-2.28,2.22-2.44,3.01-.3,5.15-2.25,5.34-5.25,.18-2.89,.18-5.82,0-8.71-.2-3.06-2.5-5.11-5.55-5.23-1.93-.07-3.86-.01-5.79,0-.06,0-.11,.04-.17,.06,.04,.62,.12,1.23,.13,1.85,.01,3.88,.01,7.76,0,11.64,0,.61-.04,1.25-.22,1.82-.42,1.3-.95,2.56-1.39,3.73,.44,.33,1.04,.68,1.53,1.14,1.29,1.23,2.52,2.51,3.92,3.92Zm-23.06,29.52c0-2.04,.09-4.01-.02-5.97-.18-3.02-2.23-5.2-5.25-5.39-2.83-.17-5.69-.18-8.52,0-3.18,.2-5.25,2.63-5.29,5.83-.02,1.51,0,3.01,0,4.52,0,.33,0,.66,0,1.01h19.08Zm19.39-.02h19.06c0-2.01,.09-3.99-.02-5.95-.18-3.02-2.23-5.2-5.25-5.39-2.83-.17-5.69-.17-8.52,0-3.02,.19-5.07,2.37-5.25,5.39-.12,1.96-.02,3.94-.02,5.95Zm-25.11-19.03c.01-2.08-1.71-3.82-3.8-3.83-2.08-.01-3.82,1.71-3.83,3.8-.01,2.08,1.71,3.82,3.8,3.83,2.08,.01,3.82-1.71,3.83-3.8Zm34.63,3.8c2.08,0,3.82-1.72,3.83-3.8,0-2.08-1.72-3.82-3.8-3.83-2.08,0-3.82,1.72-3.83,3.8,0,2.08,1.72,3.82,3.8,3.83Z"/>
      <path class="cls-1" d="M48.83,37.7c.58-.62,1.05-1.14,1.54-1.63,1.56-1.56,3.11-3.13,4.68-4.68,.86-.84,2.01-.84,2.78-.05,.75,.77,.75,1.9-.07,2.73-2.49,2.52-5,5.02-7.52,7.51-.87,.86-1.95,.86-2.83,0-1.25-1.21-2.48-2.44-3.69-3.69-.82-.84-.83-1.96-.08-2.73,.77-.79,1.91-.78,2.78,.04,.4,.38,.79,.77,1.17,1.17,.38,.4,.75,.81,1.23,1.33Z"/>
    </g>
  </g>
</svg>