<?xml version="1.0" encoding="UTF-8"?>
<svg id="Layer_1" data-name="Layer 1" xmlns="http://www.w3.org/2000/svg" viewBox="0 0 117 117">
  <defs>
    <style>
      .cls-1 {
        fill: #fff;
      }

      .cls-2 {
        fill: #ff8c00;
      }
    </style>
  </defs>
  <circle class="cls-2" cx="58.5" cy="58.5" r="58.5"/>
  <g id="l9b7j0">
    <g>
      <path class="cls-1" d="M41.7,75.17c-1.08-1.74-2.21-3.38-3.15-5.11-1.47-2.74-2.02-5.75-2.24-8.84-.32-4.45-.73-8.89-1.16-13.32-.22-2.28,.48-4.14,2.3-5.5,1.84-1.37,3.88-1.54,5.98-.57,.14,.06,.28,.12,.58,.25,0-.38,0-.66,0-.95,0-4.51-.02-9.02,0-13.54,.01-3.02,1.82-5.34,4.65-5.76,1.1-.16,2.26,.1,3.45,.18,1.22-3.78,3.02-5.35,6.09-5.22,2.83,.12,4.73,1.99,5.47,5.44,1.69-.65,3.39-.77,5.05,.07,1.67,.84,2.65,2.22,3.03,3.8,1.26-.08,2.47-.37,3.62-.2,2.71,.38,4.6,2.61,4.65,5.35,.06,2.91,.03,5.83,.02,8.74,0,1.04-.68,1.73-1.59,1.71-.9-.02-1.49-.67-1.5-1.71-.01-2.81,0-5.62-.01-8.43,0-1.17-.5-2.05-1.6-2.5-1-.41-1.93-.19-2.71,.55-.58,.55-.76,1.25-.76,2.03,.01,4.69,0,9.38,.01,14.08,0,.26,.01,.52-.02,.77-.1,.78-.77,1.37-1.53,1.37-.72,0-1.4-.56-1.52-1.3-.05-.28-.03-.57-.03-.85,0-6.06,0-12.12,0-18.18,0-1.3-.65-2.22-1.79-2.59-1.06-.35-2.29-.01-2.86,.95-.32,.54-.48,1.26-.48,1.89-.04,5.93-.02,11.86-.02,17.79,0,.36,0,.73-.07,1.08-.14,.72-.79,1.22-1.5,1.21-.71,0-1.35-.51-1.48-1.23-.06-.35-.06-.72-.06-1.08,0-7.58,0-15.16,0-22.74,0-1.51-.6-2.41-1.83-2.79-1.64-.5-3.24,.55-3.42,2.26-.03,.28-.02,.57-.02,.85,0,7.45,.01,14.9,.02,22.35,0,.28,0,.57-.01,.85-.07,.91-.69,1.53-1.52,1.54-.82,0-1.46-.61-1.56-1.51-.03-.26-.02-.51-.02-.77,0-6.01,0-12.01-.02-18.02,0-1.66-1.07-2.77-2.58-2.73-1.26,.03-2.31,1.01-2.41,2.27-.03,.33-.02,.67-.02,1,0,6.73-.01,13.46,.03,20.19,0,1.2,.27,2.4,.47,3.59,.03,.19,.38,.43,.62,.48,2.4,.49,4.71,1.22,6.55,2.9,.84,.77,1.51,1.74,2.13,2.71,.45,.71,.11,1.6-.59,2-.7,.41-1.64,.25-2.04-.48-1.4-2.57-3.81-3.47-6.45-4.02-.45-.09-.91-.14-1.37-.19-1.13-.14-1.57-.55-1.76-1.69-.37-2.26-.74-4.52-1.12-6.78-.26-1.57-1.51-2.62-2.95-2.45-1.55,.18-2.56,1.5-2.41,3.12,.44,4.9,.92,9.8,1.31,14.71,.32,4.09,2.01,7.55,4.52,10.72,.61,.77,1.19,.99,2.12,.81,1.54-.31,3.1-.46,4.65-.74,.29-.05,.65-.31,.78-.57,1.01-1.97,2-3.95,2.95-5.95,.61-1.29,1.52-2.15,3.01-2.16,1.49,0,2.41,.83,3.03,2.12,.96,2,1.93,3.98,2.95,5.95,.14,.28,.52,.56,.83,.61,2.26,.38,4.52,.71,6.79,1.01,.27,.04,.65-.14,.84-.35,2.75-2.99,4.43-6.53,4.78-10.58,.24-2.82,.13-5.67,.17-8.5,0-.31,0-.63,.07-.92,.17-.68,.89-1.16,1.59-1.1,.7,.06,1.39,.59,1.4,1.32,.1,6.07,.58,12.23-2.75,17.75-.86,1.43-1.94,2.72-2.89,4.09-.18,.26-.34,.62-.31,.92,.09,1.13-.23,2.08-1.05,2.87-1.63,1.58-3.23,3.18-4.88,4.74-.39,.37-.49,.73-.4,1.22,.4,2.2,.77,4.41,1.16,6.62,.23,1.33-.08,2.47-1.2,3.29-1.11,.81-2.28,.81-3.49,.17-2-1.06-4.02-2.09-6-3.18-.48-.26-.82-.22-1.27,.02-1.92,1.04-3.88,2.02-5.8,3.07-1.27,.69-2.5,.79-3.69-.11-1.16-.87-1.39-2.08-1.14-3.46,.4-2.18,.78-4.36,1.11-6.55,.05-.33-.13-.81-.38-1.05-1.44-1.47-2.94-2.89-4.41-4.33-1.79-1.75-1.96-2.73-.92-4.78Zm28.89,1.81l.2,.13c-.2-.04-.4-.1-.6-.13-2.44-.36-4.88-.74-7.33-1.06-.84-.11-1.34-.51-1.69-1.25-1.05-2.18-2.13-4.34-3.2-6.51-.11-.23-.25-.46-.42-.77-1.23,2.49-2.42,4.85-3.56,7.24-.37,.77-.88,1.2-1.74,1.31-2.42,.32-4.84,.69-7.25,1.04-.23,.03-.46,.11-.69,.16l.29-.17c1.8,1.95,3.58,3.91,5.41,5.83,.57,.6,.82,1.21,.67,2.01-.19,.99-.35,1.98-.52,2.97-.28,1.66-.56,3.32-.86,5.1,.35-.18,.58-.29,.8-.41,2.16-1.14,4.33-2.26,6.48-3.42,.68-.36,1.3-.39,1.97-.02,1.2,.65,2.41,1.27,3.62,1.91,1.2,.63,2.39,1.26,3.7,1.94-.45-2.67-.85-5.21-1.33-7.73-.2-1.05,.04-1.79,.8-2.55,1.81-1.82,3.52-3.75,5.27-5.63Z"/>
      <path class="cls-1" d="M80.04,47.15c-.02,.86-.76,1.54-1.62,1.51-.84-.04-1.48-.72-1.46-1.58,.02-.87,.75-1.56,1.61-1.51,.82,.04,1.5,.76,1.48,1.58Z"/>
    </g>
  </g>
</svg>