<?xml version="1.0" encoding="UTF-8"?>
<svg id="Layer_1" data-name="Layer 1" xmlns="http://www.w3.org/2000/svg" viewBox="0 0 108 108">
  <defs>
    <style>
      .cls-1 {
        fill: #fff;
      }

      .cls-2 {
        fill: #78c710;
      }
    </style>
  </defs>
  <rect class="cls-2" width="108" height="108" rx="12" ry="12"/>
  <g id="F6HfHO">
    <path class="cls-1" d="M64.25,53.92c-3.68-3.15-7.28-6.23-10.87-9.31-4.78-4.1-9.56-8.2-14.34-12.28-1.19-1.02-1.86-2.26-1.66-3.84,.21-1.65,1.12-2.83,2.68-3.41,1.61-.6,3.05-.21,4.34,.9,6.33,5.43,12.67,10.85,19,16.27,3.13,2.68,6.26,5.36,9.39,8.04,2.75,2.36,2.75,4.95,0,7.29-9.54,8.16-19.08,16.33-28.62,24.49-1.9,1.63-4.46,1.5-6-.29-1.55-1.81-1.33-4.35,.57-5.97,8.23-7.05,16.46-14.1,24.69-21.15,.24-.21,.48-.43,.82-.73Z"/>
  </g>
</svg>